<svg width="128" height="128" viewBox="0 0 128 128" fill="none" xmlns="http://www.w3.org/2000/svg"><path d="M64 77.8564V73.2376L120 40.9041V45.5229L64 77.8564Z" fill="#fff" stroke="#00008f" stroke-linecap="round" stroke-linejoin="round"/><path d="M64 73.2376L8 40.9059V45.5248L64 77.8564V73.2376Z" fill="#e2efff" stroke="#00008f" stroke-linecap="round" stroke-linejoin="round"/><path d="M23.999 77.8561C29.8023 87.4953 45.6357 95.745 63.9998 95.6841C82.4397 95.6229 98.2116 87.3287 104 77.8561L104 54.7621L63.9999 77.8561L23.999 54.7621V77.8561Z" fill="#e2efff"/><path d="M65.7445 83.4697C64.5642 85.5005 63.9851 87.6231 64.0003 89.4032L64 95.6841C82.4398 95.6229 98.2116 87.3286 104 77.8561L104 59.3807L69.9995 79.01C68.4585 79.891 66.9183 81.4499 65.7445 83.4697Z" fill="#fff"/><path d="M23.999 77.8561C29.8023 87.4953 45.6357 95.745 63.9998 95.6841C82.4397 95.6229 98.2116 87.3287 104 77.8561L104 54.7621L63.9999 77.8561L23.999 54.7621V77.8561Z" stroke="#00008f" stroke-linejoin="round"/><path d="M64 8.57434L120 40.904L64 73.2376L8 40.906L64 8.57434Z" fill="#fff" stroke="#00008f" stroke-linecap="round" stroke-linejoin="round"/><path d="M45.9579 115.106L41.9779 85.5148H41.9772C41.7653 83.5051 40.0659 81.9388 38.0001 81.9388C35.9343 81.9388 34.2349 83.5051 34.0231 85.5148H34.0223L30.0403 115.106C30.0132 115.263 29.9995 115.422 30 115.583C30.0076 118.152 33.5974 120.222 38 120.234C42.4125 120.247 46 118.146 46 115.583C46 115.422 45.9856 115.263 45.9579 115.106Z" fill="#00008f"/><path d="M64.0001 43.2053L40.0001 57.0718C39.4867 57.3654 38.9735 57.8854 38.5814 58.5586C38.1905 59.2297 37.9974 59.9298 38 60.5193L38.0001 85.9388" stroke="#00008f" stroke-width="4" stroke-linecap="round" stroke-linejoin="round"/><path d="M67.9936 43.4763C68.1632 42.202 66.2088 41.1459 63.9988 41.1539C61.7913 41.1618 59.9874 42.181 60.004 43.4763C60.0204 44.7575 61.8094 45.6451 63.9988 45.7988C65.6131 45.912 67.82 44.7815 67.9936 43.4763Z" fill="#00008f"/><path d="M59.999 43.4731C59.999 41.264 61.7899 39.4731 63.999 39.4731C66.2082 39.4731 67.999 41.264 67.999 43.4731H59.999Z" fill="#00008f"/><path d="M120.75 45.5226C120.75 45.7905 120.607 46.038 120.375 46.172L104.75 55.1945L104.751 77.8566C104.751 77.9944 104.712 78.1296 104.641 78.2472C104.265 78.8611 103.85 79.469 103.398 80.0685C102.721 80.9674 101.959 81.8488 101.12 82.7072C99.2857 84.584 97.0742 86.3517 94.5645 87.9562C94.3221 88.1111 94.0747 88.2679 93.8213 88.423C93.1624 88.8261 92.4838 89.2191 91.7852 89.5997C91.7389 89.6249 91.6452 89.6771 91.584 89.7101C90.8944 90.0815 90.1853 90.4382 89.4648 90.7833C88.987 91.0122 88.5017 91.236 88.0078 91.4542C86.5861 92.0824 85.1063 92.6641 83.5713 93.1896C83.5628 93.1925 83.5532 93.1961 83.5361 93.2023C83.5213 93.2077 83.4992 93.2157 83.4756 93.2238H83.4746C83.449 93.2325 83.4245 93.2407 83.4072 93.2462L83.3652 93.2599C82.8219 93.4436 82.272 93.6185 81.7188 93.7872C80.845 94.0538 79.9561 94.3048 79.0508 94.5353H79.0498C79.0408 94.5376 79.0307 94.5401 79.0127 94.545C78.9966 94.5495 78.9721 94.5561 78.9463 94.5626C75.5316 95.4255 71.9129 96.0139 68.1602 96.2765C66.7929 96.3721 65.4068 96.429 64.002 96.4337C54.7096 96.4645 46.051 94.3935 38.9717 91.087C31.9029 87.7855 26.3573 83.2275 23.3564 78.2433C23.2862 78.1266 23.2491 77.9927 23.249 77.8566V55.1945L7.625 46.174C7.39304 46.04 7.25 45.7924 7.25 45.5245V40.9064C7.25 40.6384 7.39295 40.39 7.625 40.256L63.625 7.92493L63.7139 7.88098C63.9273 7.79286 64.1718 7.80763 64.375 7.92493L120.375 40.254C120.607 40.388 120.75 40.6365 120.75 40.9044V45.5226Z" stroke="#00008f" stroke-width="1.5" stroke-linecap="round" stroke-linejoin="round"/></svg>