<svg width="48" height="48" viewBox="0 0 48 48" fill="none" xmlns="http://www.w3.org/2000/svg"><path d="M16.9766 23.0004C16.7005 23.0004 16.4766 23.2243 16.4766 23.5004C16.4766 23.7765 16.7005 24.0004 16.9766 24.0004V23.5004V23.0004ZM38.3371 24.0004C38.6133 24.0004 38.8371 23.7765 38.8371 23.5004C38.8371 23.2243 38.6133 23.0004 38.3371 23.0004V23.5004V24.0004ZM32.1161 16.5707C31.9208 16.3754 31.6042 16.3754 31.409 16.5707C31.2137 16.7659 31.2137 17.0825 31.409 17.2778L31.7625 16.9242L32.1161 16.5707ZM38.3377 23.4994L38.6913 23.853L39.0448 23.4994L38.6913 23.1459L38.3377 23.4994ZM31.409 29.7211C31.2137 29.9163 31.2137 30.2329 31.409 30.4282C31.6042 30.6234 31.9208 30.6234 32.1161 30.4282L31.7625 30.0746L31.409 29.7211ZM23.3294 10.5C23.6055 10.5 23.8294 10.2761 23.8294 10C23.8294 9.72386 23.6055 9.5 23.3294 9.5V10V10.5ZM23.3294 37.5C23.6055 37.5 23.8294 37.2761 23.8294 37C23.8294 36.7239 23.6055 36.5 23.3294 36.5V37V37.5ZM16.9766 23.5004V24.0004L38.3371 24.0004V23.5004V23.0004L16.9766 23.0004V23.5004ZM31.7625 16.9242L31.409 17.2778L37.9842 23.853L38.3377 23.4994L38.6913 23.1459L32.1161 16.5707L31.7625 16.9242ZM38.3377 23.4994L37.9842 23.1459L31.409 29.7211L31.7625 30.0746L32.1161 30.4282L38.6913 23.853L38.3377 23.4994ZM23.3294 10V9.5H10.7941V10V10.5H23.3294V10ZM10.7941 10V9.5C10.4509 9.5 10.1217 9.63634 9.87904 9.87904L10.2326 10.2326L10.5861 10.5861C10.6413 10.531 10.7161 10.5 10.7941 10.5V10ZM10.2326 10.2326L9.87904 9.87904C9.63634 10.1217 9.5 10.4509 9.5 10.7941H10H10.5C10.5 10.7161 10.531 10.6413 10.5861 10.5861L10.2326 10.2326ZM10 10.7941H9.5V36.2059H10H10.5V10.7941H10ZM10 36.2059H9.5C9.5 36.5491 9.63634 36.8783 9.87904 37.121L10.2326 36.7674L10.5861 36.4139C10.531 36.3587 10.5 36.2839 10.5 36.2059H10ZM10.2326 36.7674L9.87904 37.121C10.1217 37.3637 10.4509 37.5 10.7941 37.5V37V36.5C10.7161 36.5 10.6413 36.469 10.5861 36.4139L10.2326 36.7674ZM10.7941 37V37.5H23.3294V37V36.5H10.7941V37Z" fill="currentColor"/></svg>