<svg width="96" height="96" viewBox="0 0 96 96" fill="none" xmlns="http://www.w3.org/2000/svg"><path d="M22.5488 29.4899C10.7509 34.5697 2.98407 43.0488 3.00002 52.7715C3.02569 68.4105 23.2613 80.8433 48 80.9062C72.7768 80.9692 92.9999 68.3578 93 52.7715C93 43.1118 85.246 34.5227 73.4594 29.4097" fill="#fff"/><path d="M22.5488 29.4899C10.7509 34.5697 2.98407 43.0488 3.00002 52.7715C3.02569 68.4105 23.2613 80.8433 48 80.9062C72.7768 80.9692 92.9999 68.3578 93 52.7715C93 43.1118 85.246 34.5227 73.4594 29.4097" stroke="#2b303b" stroke-linejoin="round"/><path d="M67.4915 55.4986C67.4916 48.5267 57.74 42.8038 45.7458 42.8563C33.7781 42.9087 23.9793 48.4823 24 55.4986C24.0206 62.4807 33.7785 68.1067 45.7458 68.1409C57.74 68.1752 67.4915 62.4635 67.4915 55.4986Z" fill="#dddfe4"/><path d="M47.9994 42.8546C33.9531 42.8189 22.5087 35.6706 22.4941 26.791L22.5048 27.2454C22.4686 35.584 24.7242 45.082 28.7733 54.6773C31.6233 59.7776 39.1723 63.4106 48.0046 63.4337C54.7088 63.4512 60.96 61.2423 64.6983 57.8078C64.2419 57.2228 64.1724 56.3936 64.3003 56.0816L64.3083 56.0645C64.433 55.7867 64.5757 55.5031 64.7356 55.2279C65.6059 53.7305 66.7761 52.6581 67.9041 52.1992C68.9694 49.543 70.2008 47.2022 70.9194 44.2565L70.7301 44.0823C69.4802 42.9781 68.0874 42.5252 67.0963 43.1013C66.9614 43.1797 66.8428 43.2782 66.7288 43.3827C66.2047 43.8633 65.566 44.0342 65.1424 43.7896C64.4961 43.4165 64.4891 42.206 65.1343 41.0945C65.4578 40.5371 65.8922 40.1092 66.3169 39.8668L70.7996 37.2933C71.3022 37.0048 71.89 36.864 72.4914 36.8768L72.6283 36.881C73.0973 34.2096 73.3816 31.619 73.4711 29.1083C73.478 28.9367 73.4835 28.7636 73.4883 28.5897C73.4909 28.4839 73.4936 28.3782 73.4955 28.2728C73.5022 27.9358 73.5057 27.5948 73.5042 27.2454L73.5046 26.7911C73.5046 35.6408 62.0672 42.8904 47.9994 42.8546Z" fill="#fff"/><path d="M73.5046 26.7911C73.5046 17.9324 62.0672 10.6595 47.9994 10.7275C33.9621 10.7954 22.4795 17.8774 22.4942 26.7911C22.5087 35.6706 33.9531 42.819 47.9994 42.8547C62.0672 42.8904 73.5046 35.6408 73.5046 26.7911Z" fill="#fff" stroke="#2b303b" stroke-linejoin="round"/><path d="M74.7716 44.7349C72.4431 40.6914 68.6765 38.5121 66.304 39.8738C65.8792 40.1162 65.4547 40.5459 65.1311 41.1033C64.486 42.2148 64.5023 43.4187 65.1481 43.7927C65.5591 44.0307 66.1999 43.8679 66.724 43.3873C66.838 43.2828 66.9617 43.1797 67.0966 43.1013C68.5719 42.2437 70.934 43.6386 72.4004 46.153C73.8701 48.6729 73.8505 51.4228 72.382 52.2706C71.7296 52.6473 70.8791 52.6193 70.0414 52.1826C68.5099 51.3841 66.1993 52.7147 64.7368 55.2312C64.5769 55.5063 64.4346 55.7842 64.3099 56.0621L64.3019 56.0792C64.1588 56.4092 64.2878 57.1272 64.5306 57.5516C64.7507 57.9364 65.0479 58.2256 65.34 58.3755C65.473 58.0708 65.6272 57.7656 65.8027 57.4637C65.917 57.267 66.0369 57.0773 66.1615 56.8951C67.6075 54.78 69.6984 53.6795 71.0584 54.3883C72.385 54.9801 73.6789 55.0469 74.6985 54.4657C77.0599 53.1196 77.1052 48.7873 74.7716 44.7349Z" fill="#dddfe4" stroke="#2b303b" stroke-linejoin="round"/><path d="M74.6978 54.4656C77.0593 53.1195 77.1046 48.7872 74.7709 44.7348C72.4425 40.6913 68.6801 38.5101 66.3076 39.8718L70.7992 37.2932C73.1717 35.9314 76.946 38.0036 79.2745 42.0471C81.6081 46.0995 81.5628 50.5301 79.2014 51.8762L74.6978 54.4656Z" fill="#fff" stroke="#2b303b" stroke-linejoin="round"/><path d="M73.4732 49.3638C73.5845 50.6873 73.2182 51.7876 72.3816 52.2707C71.7292 52.6473 70.8787 52.6194 70.041 52.1826C69.3112 51.8022 68.4046 51.9051 67.4971 52.3894L67.4893 52.3945L71.6792 49.9693C72.2904 49.5797 72.8972 49.3855 73.4732 49.3638Z" fill="#dddfe4" stroke="#2b303b" stroke-linejoin="round"/><path d="M48.0046 63.4337C39.1723 63.4106 31.6233 59.7776 28.7733 54.6773C24.7242 45.082 22.4686 35.584 22.5048 27.2454L22.4941 26.791C22.5087 35.6706 33.9531 42.8189 47.9994 42.8546L48.0046 63.4337Z" fill="#dddfe4"/><path d="M69.5866 30.4854C70.1809 29.3125 70.4999 28.0724 70.4999 26.7911C70.4999 19.5774 60.4101 13.655 48 13.7103C35.6167 13.7656 25.4871 19.5326 25.5 26.7911C25.5023 28.0965 25.8333 29.356 26.4471 30.5438C29.1984 25.123 37.8552 21.2177 48.035 21.1723C58.1956 21.1269 66.8008 25.0886 69.5866 30.4854Z" fill="#fff"/><path d="M48.0351 21.1723C58.1957 21.1269 66.8009 25.0886 69.5867 30.4854C70.1809 29.3125 70.4999 28.0724 70.4999 26.7911C70.4999 19.5774 60.4102 13.655 48 13.7103L48.0351 21.1723Z" fill="#dddfe4"/><path d="M70.4999 26.7911C70.4999 19.5774 60.4101 13.655 48 13.7103C35.6167 13.7656 25.4871 19.5326 25.5 26.7911C25.5129 34.0218 35.6088 39.8428 47.9999 39.8719C60.4102 39.901 70.4998 33.9975 70.4999 26.7911Z" stroke="#2b303b" stroke-linejoin="round"/><path d="M93 52.772C92.9999 68.3583 72.7768 80.9696 48 80.9067C23.2613 80.8438 3.02567 68.4109 3 52.772L3 58.9499C3.02567 73.4356 23.2613 85.2052 48 85.2634C72.7768 85.3218 92.9152 73.3871 92.9152 58.9501L93 52.772Z" fill="#fff" stroke="#2b303b" stroke-linejoin="round"/><path d="M48 80.9067C23.2613 80.8438 3.02567 68.4109 3 52.772L3 58.9499C3.02567 73.4356 23.2613 85.2052 48 85.2634V80.9067Z" fill="#dddfe4"/><path d="M93 52.772C92.9999 68.3583 72.7768 80.9696 48 80.9067C23.2613 80.8438 3.02567 68.4109 3 52.772L3 58.9499C3.02567 73.4356 23.2613 85.2052 48 85.2634C72.7768 85.3218 92.9152 73.3871 92.9152 58.9501L93 52.772Z" stroke="#2b303b" stroke-linejoin="round"/><path d="M47.9994 42.8546C33.9531 42.8189 22.5087 35.6706 22.4941 26.791L22.5048 27.2454C22.4686 35.584 24.7242 45.082 28.7733 54.6773C31.6233 59.7776 39.1723 63.4106 48.0046 63.4337C54.7088 63.4512 61.035 61.2004 64.6983 57.8078C64.2565 57.2489 64.1623 56.3941 64.3003 56.0816L64.3083 56.0645C64.433 55.7867 64.5757 55.5031 64.7356 55.2279C65.6058 53.7305 66.7761 52.6581 67.9041 52.1992C68.9704 49.5406 70.2005 47.2064 70.9194 44.2566L70.7301 44.0823C69.478 42.9715 68.0873 42.525 67.0963 43.1013C66.9613 43.1798 66.8425 43.2784 66.7288 43.3827C66.2047 43.8634 65.566 44.0342 65.1424 43.7896C64.4961 43.4165 64.4891 42.206 65.1343 41.0945C65.4578 40.5371 65.8922 40.1092 66.3169 39.8668L70.7996 37.2933C71.3022 37.0048 71.89 36.864 72.4914 36.8768L72.6283 36.881C73.0973 34.2096 73.3816 31.619 73.4711 29.1083C73.478 28.9367 73.4835 28.7636 73.4883 28.5897C73.4909 28.4839 73.4936 28.3782 73.4955 28.2728C73.5022 27.9358 73.5057 27.5948 73.5042 27.2454L73.5046 26.7911C73.5046 35.6408 62.0672 42.8904 47.9994 42.8546Z" stroke="#2b303b" stroke-linejoin="round"/><path d="M69.5868 30.4854C66.801 25.0886 58.1958 21.1269 48.0352 21.1723C37.8553 21.2177 29.1985 25.123 26.4473 30.5438C29.2333 35.9349 37.846 39.848 48.0001 39.8718C58.2038 39.8958 66.8387 35.9092 69.5868 30.4854Z" fill="#2b303b" stroke="#2b303b" stroke-linejoin="round"/><path d="M47.9961 9.97705C55.1518 9.94252 61.6724 11.774 66.4277 14.7778C71.1725 17.7751 74.2549 22.0134 74.2549 26.7915L74.2539 27.2466C74.2554 27.6017 74.2518 27.9473 74.2451 28.2876C74.2431 28.3955 74.2409 28.5037 74.2383 28.6079V28.6108C74.2353 28.7178 74.2312 28.825 74.2275 28.9321C85.8784 34.1242 93.75 42.811 93.75 52.772V52.7817L93.665 58.9604C93.6601 66.5512 88.371 73.3431 80.1289 78.189C71.8636 83.0485 60.4983 86.0426 47.998 86.0132C35.5196 85.9838 24.1416 83.0024 15.8545 78.1646C7.5867 73.338 2.26351 66.5715 2.25 58.9507V52.772C2.23406 42.7449 10.1232 34.165 21.7832 29.0093C21.764 28.4223 21.7526 27.8402 21.7549 27.2632L21.7441 26.8091C21.744 26.8037 21.7442 26.7979 21.7441 26.7925C21.7363 21.984 24.8286 17.7789 29.5791 14.8062C34.3391 11.8275 40.8613 10.0115 47.9961 9.97705Z" stroke="#2b303b" stroke-width="1.5" stroke-linecap="round" stroke-linejoin="round"/></svg>