<svg width="96" height="96" viewBox="0 0 96 96" fill="none" xmlns="http://www.w3.org/2000/svg"><path d="M89.1266 15.9127L85.3635 13.7433C84.8844 13.4897 84.2719 13.5751 83.6589 13.9249L79.9473 16.0555L79.9485 10.0814C79.9483 9.35201 79.7069 8.76056 79.219 8.47941L75.5093 6.33674C74.5358 5.77566 72.9745 6.67889 72.0115 8.34218C71.5297 9.17448 71.2621 10.0374 71.2642 10.768V21.0687L63.8149 25.4027C63.1577 25.7778 62.5747 26.3704 62.0611 27.2576C61.0974 28.9222 61.1027 30.7351 62.0732 31.2895C62.0732 31.2895 65.7242 33.3986 65.7829 33.4321C66.2649 33.7075 66.8953 33.6263 67.5248 33.2704L71.2642 31.0956L71.2602 37.0935C71.2624 37.8241 71.5355 38.4196 72.0208 38.6968L75.7593 40.8495C76.732 41.3714 78.2826 40.4866 79.2283 38.834C79.705 38.0009 79.9465 37.1336 79.9463 36.4042L79.9478 26.0821L87.3685 21.7799C88.0066 21.4191 88.6438 20.7761 89.1244 19.9362C90.0731 18.2784 90.0876 16.4845 89.1266 15.9127Z" fill="#e2efff" stroke="#00008f" stroke-linejoin="round"/><path d="M66.2964 28.6348C66.6787 28.1631 67.0938 27.8102 67.5217 27.5596L74.9853 23.2172L71.2638 21.0686L63.8144 25.4026C63.3884 25.6458 62.9698 26.022 62.5879 26.4907L66.2964 28.6348Z" fill="#fff"/><path d="M89.1266 15.9127L85.3635 13.7433C84.8844 13.4897 84.2719 13.5751 83.6589 13.9249L79.9473 16.0555L79.9485 10.0814C79.9483 9.35201 79.7069 8.76056 79.219 8.47941L75.5093 6.33674C74.5358 5.77566 72.9745 6.67889 72.0115 8.34218C71.5297 9.17448 71.2621 10.0374 71.2642 10.768V21.0687L63.823 25.398C63.1989 25.7022 62.5449 26.4219 62.0611 27.2576C61.0974 28.9222 61.1027 30.7351 62.0732 31.2895C62.0732 31.2895 65.7242 33.3986 65.7829 33.4321C66.2649 33.7075 66.8953 33.6263 67.5248 33.2704L71.2642 31.0959V37.0228C71.2373 37.8138 71.5355 38.4196 72.0208 38.6968L75.7593 40.8495C76.732 41.3714 78.2826 40.4866 79.2283 38.834C79.705 38.0009 79.9465 37.1336 79.9463 36.4042L79.9479 26.0821L87.3685 21.7799C88.0066 21.4191 88.6438 20.7761 89.1244 19.9362C90.0731 18.2784 90.0876 16.4845 89.1266 15.9127Z" stroke="#00008f" stroke-linejoin="round"/><path d="M79.9491 20.3518L87.3698 16.067C87.9986 15.7081 88.628 15.6247 89.1123 15.903L85.3647 13.7427C84.8856 13.489 84.2731 13.5745 83.6601 13.9243L79.9473 16.0556L79.9491 20.3518Z" fill="#fff"/><path d="M87.3679 16.0675C87.9972 15.7084 88.6271 15.625 89.1116 15.9042C90.0873 16.4665 90.0772 18.27 89.1237 19.9361C88.6431 20.776 88.0059 21.419 87.3678 21.7798L79.9471 26.0821L79.9456 36.4041C79.9458 37.1335 79.7043 38.0009 79.2276 38.8339C78.2727 40.5024 76.7023 41.3884 75.7317 40.8339C75.2464 40.5567 74.9873 39.9766 74.9851 39.246L74.9996 28.9473L67.5386 33.2707C66.8946 33.6262 66.2642 33.7074 65.7822 33.432C64.8117 32.8776 64.8063 31.0648 65.7701 29.4001C66.2539 28.5645 66.8887 27.9207 67.5241 27.5581L74.9851 23.2172L75.0013 17.4479L74.9851 12.946C74.9829 12.2154 75.2387 11.3171 75.7205 10.4848C76.6835 8.82147 78.2447 7.91824 79.2183 8.47931C79.7062 8.76047 79.9476 9.35192 79.947 10.11L79.9484 20.3517L87.3679 16.0675Z" fill="#fff" stroke="#00008f" stroke-linejoin="round"/><path d="M89.1267 15.9127L85.3636 13.7434C84.8845 13.4898 84.272 13.5752 83.659 13.925L79.9473 16.0555" stroke="#00008f" stroke-linejoin="round"/><path d="M68.3096 77.9386C68.4996 77.9674 68.6779 77.9418 68.8302 77.8539C69.3901 77.5306 69.4906 76.4344 68.9309 75.4732C68.5496 74.8183 68.0494 74.4668 67.4309 74.3069C56.4284 72.0466 45.0973 64.1379 37.0504 52.5281C36.5518 51.7882 35.8452 51.3512 35.3945 51.613V51.6119C34.9462 51.8724 34.9464 52.7076 35.3888 53.4781L35.3923 53.4842C43.4901 66.4508 55.6564 75.3496 67.4309 77.7688L68.3096 77.9386Z" fill="#e2efff" stroke="#00008f" stroke-linejoin="round"/><path d="M71.9246 73.7281C71.5433 73.0732 71.0431 72.7217 70.4246 72.5618C59.4221 70.3015 48.091 62.3928 40.0441 50.7829C39.5456 50.0431 38.8389 49.6061 38.3882 49.8679L35.3945 51.6131C35.8452 51.3512 36.5519 51.7882 37.0504 52.5281C45.0973 64.1379 56.4284 72.0467 67.4309 74.307C68.0494 74.4668 68.5496 74.8183 68.9309 75.4732C69.4906 76.4345 69.3902 77.5307 68.8302 77.8539L71.8239 76.1088C72.3839 75.7855 72.4843 74.6893 71.9246 73.7281Z" fill="#fff" stroke="#00008f" stroke-linejoin="round"/><path d="M21.7927 18.4015C21.7347 18.0551 21.6005 17.6809 21.3894 17.3184C20.8037 16.3123 19.8585 15.759 19.268 16.1021L16.2686 17.8208C16.8591 17.4778 17.8043 18.0311 18.3901 19.0372C18.6011 19.3996 18.7353 19.7738 18.7933 20.1202L29.3377 60.509L32.3371 58.7902L21.7927 18.4015Z" fill="#fff" stroke="#00008f" stroke-linejoin="round"/><path d="M29.3377 60.5089L18.7933 20.1202C18.7353 19.7738 18.6011 19.3996 18.39 19.0372C17.8043 18.0311 16.8591 17.4777 16.2685 17.8208C15.9014 18.0342 15.7638 18.5417 15.8538 19.1388L26.3377 58.7769L29.3377 60.5089L26.6757 50.3127L29.3377 60.5089Z" fill="#e2efff"/><path d="M29.3377 60.5089L18.7933 20.1202C18.7353 19.7738 18.6011 19.3996 18.39 19.0372C17.8043 18.0311 16.8591 17.4777 16.2685 17.8208C15.9014 18.0341 15.7638 18.5417 15.8538 19.1388L26.3377 58.7769L29.3377 60.5089ZM29.3377 60.5089L26.6757 50.3127" stroke="#00008f" stroke-linecap="round" stroke-linejoin="round"/><path d="M29.2742 14.0768C29.2161 13.7304 29.0819 13.3562 28.8709 12.9937C28.2851 11.9876 27.3399 11.4343 26.7494 11.7774L23.75 13.4961C24.3406 13.153 25.2857 13.7064 25.8715 14.7125C26.0825 15.0749 26.2167 15.4491 26.2748 15.7955L36.8191 56.1842L39.8185 54.4655L29.2742 14.0768Z" fill="#fff" stroke="#00008f" stroke-linejoin="round"/><path d="M36.8191 56.1842L26.2748 15.7955C26.2167 15.4491 26.0825 15.0749 25.8715 14.7125C25.2857 13.7064 24.3405 13.153 23.75 13.4961C23.3828 13.7094 23.2453 14.217 23.3353 14.8141L33.8191 54.4522L36.8191 56.1842L34.1571 45.988L36.8191 56.1842Z" fill="#e2efff"/><path d="M36.8191 56.1842L26.2748 15.7955C26.2167 15.4491 26.0825 15.0749 25.8715 14.7125C25.2857 13.7064 24.3405 13.153 23.75 13.4961C23.3828 13.7094 23.2453 14.217 23.3353 14.8141L33.8191 54.4522L36.8191 56.1842ZM36.8191 56.1842L34.1571 45.988" stroke="#00008f" stroke-linecap="round" stroke-linejoin="round"/><path d="M43.5109 90.2185C43.1296 89.5636 42.6294 89.2121 42.0109 89.0523C31.0083 86.792 19.8334 79.1044 11.8247 67.4644C11.7628 67.3743 11.5446 67.0549 11.0999 66.7349C10.6713 66.4264 10.1267 66.4071 9.79136 66.602C9.20389 66.9433 9.11002 68.1669 9.6898 69.1766C17.7875 82.1432 30.2364 90.095 42.0109 92.5141L42.8896 92.6839C43.0796 92.7127 43.2579 92.6872 43.4101 92.5993C43.9701 92.276 44.0705 91.1798 43.5109 90.2185Z" fill="#e2efff" stroke="#00008f" stroke-linejoin="round"/><path d="M46.5131 88.4873C46.1318 87.8324 45.6316 87.481 45.0131 87.3211C34.0106 85.0608 22.8357 77.3732 14.827 65.7331C14.765 65.6431 14.5468 65.3237 14.1022 65.0037C13.6735 64.6952 13.1289 64.6759 12.7936 64.8708L9.79102 66.602C10.1263 66.4072 10.671 66.4264 11.0996 66.7349C11.5443 67.055 11.7624 67.3743 11.8244 67.4644C19.8331 79.1044 31.008 86.792 42.0105 89.0523C42.629 89.2122 43.1292 89.5637 43.5105 90.2185C44.0702 91.1798 43.9698 92.276 43.4098 92.5993L46.4124 90.8681C46.9723 90.5448 47.0728 89.4486 46.5131 88.4873Z" fill="#fff" stroke="#00008f" stroke-linejoin="round"/><path d="M11.9656 20.6149C11.9075 20.2684 11.7733 19.8942 11.5623 19.5318C10.9765 18.5257 10.0313 17.9724 9.44081 18.3155L6.44141 20.0342C7.03197 19.6911 7.97713 20.2445 8.56291 21.2506C8.77394 21.613 8.90813 21.9872 8.96618 22.3336L19.5105 62.7223L22.5099 61.0036L11.9656 20.6149Z" fill="#fff" stroke="#00008f" stroke-linejoin="round"/><path d="M11.5627 19.5319C11.7737 19.8944 11.9079 20.2686 11.966 20.615L13.0764 24.8682L35.5795 11.8735C34.9361 10.4234 33.9816 9.27386 32.6832 8.52929C26.8055 5.15891 17.801 9.97091 11.5107 19.4449L11.5627 19.5319Z" fill="#fff" stroke="#00008f" stroke-linejoin="round"/><path d="M34.3148 12.6056L33.2667 13.2085L43.0824 50.3572L46.0824 52.0892L42.2623 37.4622L41.8192 35.7656L34.4662 7.61117C34.4081 7.26478 34.2739 6.89058 34.0629 6.52815C33.4771 5.52205 32.532 4.96871 31.9414 5.3118C31.5742 5.52512 31.4367 6.03264 31.5267 6.62977L31.9302 8.15563C32.1854 8.26788 32.4375 8.38882 32.6823 8.52919C32.7826 8.58673 32.8809 8.64669 32.9772 8.70902L34.3148 12.6056Z" fill="#e2efff" stroke="#00008f" stroke-linejoin="round"/><path d="M37.4656 5.89244C37.4075 5.54603 37.2733 5.17183 37.0623 4.8094C36.4765 3.8033 35.5313 3.24996 34.9408 3.59305L31.9414 5.31181C32.532 4.96872 33.4771 5.52207 34.0629 6.52816C34.2739 6.8906 34.4081 7.26479 34.4662 7.61121L41.8192 35.7657L43.5101 36.7418L42.2623 37.4622L43.0485 40.4724L46.0824 52.0893L49.0818 50.3571L37.4656 5.89244Z" fill="#fff" stroke="#00008f" stroke-linejoin="round"/><path d="M43.5102 36.7418L41.8193 35.7656L42.2624 37.4622L43.5102 36.7418Z" fill="#fff" stroke="#00008f" stroke-linejoin="round"/><path d="M64.523 43.6732C64.9058 43.8963 65.1428 44.2046 65.1428 44.5435C65.1428 45.2206 64.1948 45.7753 63.0287 45.7726C62.4292 45.7712 61.887 45.6255 61.5018 45.3917L41.2861 33.7213L44.2767 31.9819L64.523 43.6732Z" fill="#fff" stroke="#00008f" stroke-linejoin="round"/><path d="M63.0287 45.7727C62.4292 45.7713 61.887 45.6256 61.5018 45.3918L41.2861 33.7214V33.7347L42.3466 37.7968L61.5017 48.8549C61.8868 49.0887 62.429 49.2343 63.0285 49.2358C64.1946 49.2385 65.1426 48.6838 65.1426 48.0067L65.1428 44.5436C65.1428 45.2208 64.1948 45.7755 63.0287 45.7727Z" fill="#e2efff" stroke="#00008f" stroke-linejoin="round"/><path d="M19.5107 76.5788L22.5107 74.8468V67.9186L19.5107 66.1865V76.5788Z" fill="#fff" stroke="#00008f" stroke-linejoin="round"/><path d="M66.0064 73.9795L66.01 73.98L60.8087 48.4548L57.8096 46.7234L63.1966 73.1638C64.133 73.4759 65.0703 73.7465 66.0064 73.9795Z" fill="#e2efff" stroke="#00008f" stroke-linejoin="round"/><path d="M48.0106 46.2678L59.02 52.624L59.8559 56.7496L62.8523 58.4834L37.5108 73.1147L19.5107 62.7224L48.0106 46.2678Z" fill="#fff" stroke="#00008f" stroke-linejoin="round"/><path d="M64.2725 48.9992C63.923 49.148 63.4939 49.2367 63.0285 49.2356C62.429 49.2342 61.8869 49.0885 61.5017 48.8547L60.8086 48.4546L66.0099 73.9798L69.0099 72.2478L64.2725 48.9992Z" fill="#fff" stroke="#00008f" stroke-linejoin="round"/><path d="M38.7742 63.7286C38.4247 63.8773 37.9955 63.9661 37.5302 63.965C36.9307 63.9636 36.3886 63.8179 36.0034 63.5841L35.3105 63.1853L35.9392 66.2706L40.5103 88.7031L43.5103 86.971L38.7742 63.7286Z" fill="#fff" stroke="#00008f" stroke-linejoin="round"/><path d="M39.025 58.4027C39.4078 58.6257 39.6448 58.9341 39.6448 59.273C39.6448 59.9501 38.6967 60.5048 37.5306 60.5021C36.9311 60.5007 36.389 60.355 36.0038 60.1212L15.7881 48.4508L18.7787 46.7114L39.025 58.4027Z" fill="#fff" stroke="#00008f" stroke-linejoin="round"/><path d="M19.5105 76.5551V66.1864L35.2432 75.2697L37.6976 87.8896C38.6343 88.2009 39.5728 88.4726 40.5112 88.707L35.3107 63.1853L36.0036 63.5841C36.3887 63.8179 36.9309 63.9636 37.5304 63.965C38.6965 63.9677 39.6445 63.413 39.6445 62.7359L39.6447 59.2729C39.6447 59.95 38.6967 60.5047 37.5306 60.502C36.9311 60.5006 36.3889 60.3549 36.0037 60.1211L34.5107 59.2592L34.5105 59.2584L31.5113 57.5262L31.5117 57.5279L15.7881 48.4507L8.96616 22.3336C8.90812 21.9872 8.77392 21.613 8.5629 21.2506C7.97712 20.2445 7.03195 19.6911 6.44139 20.0342C6.07424 20.2475 5.93668 20.7551 6.02668 21.3522L16.5105 60.9903V73.4364C17.4824 74.5256 18.4839 75.5651 19.5105 76.5551ZM32.3113 61.4526L34.311 71.2674L19.5105 62.7223L16.8486 52.526L32.3113 61.4526Z" fill="#e2efff" stroke="#00008f" stroke-linecap="round" stroke-linejoin="round"/><path d="M35.4006 63.2373L30.9463 60.6648" stroke="#00008f" stroke-linejoin="round"/><path d="M40.9839 74.5729L40.3516 71.4696L62.8519 58.4834L63.4834 61.5824L40.9839 74.5729Z" fill="#fff" stroke="#00008f" stroke-linejoin="round"/><path d="M73.3828 5.85474C74.0838 5.45181 74.9524 5.24431 75.7295 5.60669L75.8838 5.68677L75.8848 5.68774L79.5928 7.82935C80.4102 8.30044 80.6979 9.21919 80.6982 10.0813V14.759L83.2871 13.2737L83.2881 13.2727C83.972 12.8824 84.8072 12.6837 85.5654 13.0081L85.7158 13.0793L85.7393 13.093L89.4873 15.2532C89.5127 15.2678 89.5366 15.284 89.5596 15.301C89.5853 15.3183 89.6062 15.332 89.6182 15.3411C89.623 15.3447 89.6276 15.3483 89.6309 15.3508C89.6346 15.3537 89.6366 15.3561 89.6387 15.3577H89.6396L89.6748 15.3821L89.7744 15.4573L89.8623 15.5403C89.8702 15.5484 89.8795 15.5583 89.8828 15.5618L89.8887 15.5676C89.9047 15.5835 89.8894 15.5681 89.9238 15.6018C89.9433 15.6209 89.9749 15.6526 90.0088 15.6926H90.0098C90.0422 15.7309 90.0671 15.766 90.0801 15.7844C90.0857 15.7924 90.094 15.8044 90.0957 15.8069C90.0985 15.8109 90.0995 15.8125 90.0996 15.8127L90.1318 15.8567C90.1486 15.8795 90.1739 15.9145 90.2002 15.9573L90.2012 15.9583C90.2258 15.9984 90.2438 16.0348 90.2529 16.053C90.2554 16.0578 90.258 16.0622 90.2598 16.0657C90.2617 16.0695 90.2634 16.072 90.2646 16.0745C90.2659 16.0769 90.2663 16.0787 90.2666 16.0793C90.2696 16.085 90.3167 16.1693 90.3496 16.2444C90.3673 16.285 90.3806 16.3216 90.3867 16.3391C90.3884 16.3439 90.3904 16.3485 90.3916 16.3518L90.3955 16.3635C90.4023 16.3815 90.436 16.4668 90.46 16.5471L90.4844 16.6399C90.4854 16.6446 90.4866 16.6492 90.4873 16.6526C90.4881 16.6563 90.4887 16.659 90.4893 16.6614L90.4902 16.6663L90.5352 16.8616C90.5421 16.8995 90.5468 16.9334 90.5488 16.9504C90.5504 16.9637 90.5498 16.9637 90.5508 16.9719C90.5513 16.9761 90.5518 16.9778 90.5518 16.9778C90.5572 17.015 90.5709 17.0994 90.5781 17.1838C90.5812 17.2207 90.5825 17.254 90.583 17.2717C90.5837 17.2956 90.5837 17.2983 90.584 17.303L90.5918 17.5149C90.5917 17.5507 90.5898 17.5828 90.5889 17.6008C90.5877 17.6239 90.5871 17.6285 90.5869 17.634V17.635C90.5855 17.6811 90.584 17.7673 90.5771 17.8528V17.8538C90.5744 17.8879 90.5706 17.9186 90.5684 17.9358C90.5656 17.9577 90.565 17.9626 90.5645 17.968V17.969C90.5588 18.0223 90.5505 18.1091 90.5371 18.1965V18.1975C90.532 18.2309 90.526 18.2609 90.5225 18.2786L90.5156 18.3137C90.5058 18.369 90.4913 18.4573 90.4717 18.5452H90.4707C90.463 18.5793 90.4554 18.6105 90.4502 18.6301C90.4438 18.654 90.4409 18.6624 90.4385 18.6721C90.4256 18.724 90.4055 18.8121 90.3809 18.8967C90.3708 18.9312 90.3605 18.9627 90.3535 18.9836C90.3451 19.0087 90.3407 19.0186 90.3369 19.0305L90.2656 19.2502C90.2465 19.3036 90.2083 19.3983 90.2051 19.4065C90.1904 19.4441 90.1582 19.5306 90.127 19.6038C90.0909 19.6882 90.0481 19.776 90.0215 19.8323V19.8333C90.0166 19.8437 90.0124 19.853 90.002 19.8762C89.993 19.896 89.9789 19.9252 89.9629 19.9573L89.7754 20.3088C89.241 21.2426 88.516 21.9896 87.7441 22.428L80.6973 26.5139L80.6963 36.4045C80.6965 37.2878 80.4078 38.282 79.8789 39.2063C79.812 39.3231 79.7428 39.4372 79.6709 39.5471L79.6699 39.5461C79.649 39.5781 79.6304 39.6073 79.6162 39.6272C79.5999 39.6501 79.5923 39.66 79.584 39.6721H79.583C79.5524 39.7165 79.4992 39.7966 79.4473 39.8665C79.4018 39.9275 79.3426 39.9989 79.3213 40.0256C79.3111 40.0384 79.2513 40.1154 79.2109 40.1633C79.156 40.2285 79.094 40.2956 79.0615 40.3313C79.0519 40.3419 79.0448 40.3515 79.0264 40.3723L78.9629 40.4407C78.9029 40.5034 78.8386 40.5644 78.8008 40.6008H78.7998C78.7917 40.6087 78.7855 40.6162 78.7676 40.634C78.7527 40.6488 78.7298 40.671 78.7041 40.6946L78.5283 40.8459C78.522 40.8512 78.5167 40.8559 78.499 40.8713C78.4849 40.8837 78.4619 40.904 78.4355 40.925L78.4346 40.9241C78.3661 40.9788 78.2961 41.0286 78.2529 41.0598C78.2473 41.0639 78.2435 41.0678 78.2256 41.0813C78.2112 41.0921 78.1862 41.1109 78.1582 41.1301C78.087 41.1789 78.0136 41.2226 77.9717 41.2483C77.9662 41.2516 77.9626 41.2545 77.9434 41.2668C77.9284 41.2764 77.902 41.2926 77.8721 41.3098C77.7995 41.3515 77.7245 41.3893 77.6865 41.4084C77.6805 41.4115 77.6765 41.4128 77.6553 41.4241L77.5781 41.4631C77.5056 41.4969 77.4277 41.5263 77.3975 41.5383H77.3965C77.3889 41.5414 77.386 41.5431 77.3623 41.553C77.3442 41.5605 77.3122 41.5735 77.2764 41.5862C77.2038 41.6118 77.1216 41.6339 77.1006 41.6399C77.0904 41.6428 77.0882 41.6442 77.0605 41.6526C77.0401 41.6587 77.0065 41.6688 76.9678 41.678C76.8967 41.6948 76.8083 41.7078 76.7998 41.7092C76.7844 41.7119 76.7874 41.712 76.7539 41.718C76.731 41.7222 76.6937 41.7279 76.6514 41.7327H76.6504C76.6066 41.7376 76.5684 41.7404 76.543 41.7415C76.5002 41.7432 76.5163 41.7414 76.4932 41.7424C76.4576 41.7441 76.4937 41.7426 76.4395 41.7454C76.4138 41.7466 76.3741 41.7484 76.3291 41.7473H76.3281C76.2831 41.7462 76.2446 41.7428 76.2217 41.7405C76.1868 41.7369 76.1951 41.7377 76.1826 41.7366C76.1781 41.7362 76.0837 41.7299 76.0049 41.7161H76.0039C75.9585 41.708 75.9207 41.698 75.9004 41.6926C75.8925 41.6905 75.8798 41.6866 75.877 41.6858C75.8747 41.6852 75.8729 41.685 75.8721 41.6848L75.6846 41.6321C75.64 41.6164 75.6033 41.5999 75.5859 41.592C75.5814 41.59 75.5773 41.5876 75.5742 41.5862C75.5707 41.5846 75.5684 41.5841 75.5664 41.5833C75.5663 41.5832 75.5657 41.5828 75.5645 41.5823C75.5627 41.5816 75.56 41.5807 75.5566 41.5793C75.5515 41.5773 75.5375 41.5716 75.5254 41.5667C75.4998 41.5562 75.4547 41.537 75.4043 41.51C75.3978 41.5065 75.3911 41.5029 75.3848 41.4993L71.6465 39.3469V39.3459C70.9951 38.9725 70.6321 38.2819 70.54 37.5256V37.5266C70.5396 37.5233 70.5298 37.4528 70.5254 37.4045L70.5244 37.3977V37.3967C70.5209 37.3526 70.5186 37.2877 70.5186 37.2864V37.2854C70.5164 37.2537 70.51 37.1687 70.5098 37.0959V37.093L70.5127 32.4133L67.915 33.9202C67.9107 33.9227 67.9058 33.9246 67.9014 33.927C67.4198 34.1928 66.8884 34.362 66.3555 34.344V34.345C66.031 34.334 65.7079 34.2528 65.4111 34.0833C65.3796 34.0653 64.4493 33.5276 63.5312 32.9973C63.0712 32.7316 62.6127 32.4671 62.2695 32.2688C62.0981 32.1698 61.9554 32.0873 61.8555 32.0295C61.8055 32.0007 61.766 31.9776 61.7393 31.9622C61.726 31.9545 61.7159 31.9486 61.709 31.9446C61.7058 31.9428 61.7029 31.9417 61.7012 31.9407C61.7003 31.9402 61.6987 31.94 61.6982 31.9397V31.9387H61.6973C60.8834 31.4714 60.5944 30.5523 60.5918 29.6917C60.5892 28.8069 60.8756 27.8088 61.4121 26.8821C61.6312 26.5037 61.8659 26.168 62.1172 25.8713C62.4994 25.4148 62.9524 25.0029 63.4424 24.7512L70.5146 20.636V10.7678C70.5125 9.86818 70.8358 8.87551 71.3623 7.96606C71.8976 7.04155 72.6168 6.29517 73.3828 5.85474ZM89.3936 15.2073C89.3981 15.2092 89.4027 15.2111 89.4072 15.2131C89.4103 15.2145 89.4139 15.2162 89.418 15.218C89.4151 15.2167 89.4124 15.2151 89.4102 15.2141C89.4042 15.2114 89.399 15.2093 89.3965 15.2083C89.395 15.2076 89.3937 15.2073 89.3936 15.2073Z" stroke="#00008f" stroke-width="1.5" stroke-linejoin="round"/><path d="M34.5645 2.94531C35.1897 2.58206 35.8809 2.75854 36.3789 3.0459C36.8951 3.34386 37.3649 3.83733 37.7109 4.43164C37.9571 4.85449 38.1212 5.30133 38.1982 5.73242L44.9287 31.4922L64.8984 43.0234L64.9004 43.0254C65.3974 43.315 65.8926 43.8265 65.8926 44.5439V48.0068C65.8925 48.6168 65.5412 49.0714 65.1152 49.3799L69.6465 71.6182C69.9581 71.6924 70.2673 71.7639 70.5752 71.8271C70.5875 71.8297 70.6001 71.8328 70.6123 71.8359C71.4256 72.0462 72.0917 72.5235 72.5732 73.3506C72.9221 73.9498 73.0772 74.6098 73.043 75.2012C73.0103 75.7645 72.7867 76.4196 72.1992 76.7588L69.208 78.502L69.2051 78.5039C68.8791 78.692 68.5226 78.7291 68.1973 78.6797C68.1873 78.6782 68.1769 78.6767 68.167 78.6748L67.2891 78.5049L67.2803 78.5039C61.3474 77.2849 55.344 74.4585 49.8057 70.3447L41.8262 74.9521L44.1504 86.3574C44.2434 86.3797 44.3359 86.4033 44.4287 86.4248L45.1641 86.5859L45.2012 86.5947C46.0142 86.805 46.6796 87.2826 47.1611 88.1094C47.51 88.7086 47.666 89.3686 47.6318 89.96C47.6013 90.488 47.4023 91.0967 46.8936 91.4502L46.7871 91.5176L43.7842 93.248C43.4582 93.4362 43.1017 93.4752 42.7764 93.4258C42.7665 93.4243 42.7568 93.4218 42.7471 93.4199L41.8682 93.25L41.8594 93.249C29.8815 90.788 17.2588 82.7124 9.05371 69.5742C9.04881 69.5664 9.04367 69.5578 9.03906 69.5498C8.67903 68.9227 8.52172 68.2214 8.55371 67.5996C8.58378 67.0168 8.79995 66.3099 9.41406 65.9531L9.41602 65.9521L12.4189 64.2207C13.043 63.8595 13.905 63.9377 14.54 64.3945C15.0854 64.7871 15.3619 65.1864 15.4453 65.3076C15.5496 65.4592 15.6552 65.6096 15.7607 65.7598V61.0889L5.30176 21.5439C5.29479 21.5176 5.28922 21.4908 5.28516 21.4639C5.18004 20.7662 5.28949 19.8361 6.06445 19.3857L6.06836 19.3838L9.06445 17.667L9.18164 17.6055C9.77467 17.3264 10.411 17.4991 10.8779 17.7686C11.0781 17.884 11.2715 18.0285 11.4531 18.1973C14.405 13.9833 17.9002 10.7246 21.415 8.77148C24.627 6.98667 27.9298 6.25794 30.8477 6.99512L30.8018 6.82129C30.7948 6.79505 30.7892 6.76804 30.7852 6.74121C30.6801 6.04358 30.7905 5.11335 31.5654 4.66309L31.5693 4.66113L34.5645 2.94531ZM23.2607 74.498C27.2425 78.2953 31.5953 81.319 36.0732 83.4688L34.5713 75.7471L23.2607 69.2178V74.498ZM56.998 66.1924C58.4868 67.1272 59.9981 67.9642 61.5215 68.7002L60.5879 64.1191L56.998 66.1924ZM48.6602 45.7773L57.9424 51.1348L57.1416 47.2031L47.5928 41.6914L48.6602 45.7773Z" stroke="#00008f" stroke-width="1.5" stroke-linecap="round" stroke-linejoin="round"/></svg>